<?xml version="1.0" encoding="iso-8859-1"?>
<!-- Generator: Adobe Illustrator 19.0.0, SVG Export Plug-In . SVG Version: 6.00 Build 0)  -->
<svg version="1.1" id="Layer_1" xmlns="http://www.w3.org/2000/svg" xmlns:xlink="http://www.w3.org/1999/xlink" x="0px" y="0px"
	 viewBox="0 0 512 512" style="enable-background:new 0 0 512 512;" xml:space="preserve" fill="white">
<g>
	<g>
		<path d="M469.338,152.564v-40.223C469.338,85.647,447.69,64,420.996,64H261.04l-85.333-42.667H91.012
			c-26.694,0-48.341,21.647-48.341,48.341v82.887C17.881,160.851,0,184.245,0,211.819v216.363c0,34.502,27.983,62.485,62.485,62.485
			h387.029c34.502,0,62.485-27.983,62.485-62.485V211.819C512,184.248,494.123,160.857,469.338,152.564z M85.338,69.675
			c0-3.13,2.545-5.675,5.675-5.675h74.623l85.333,42.667h170.028c3.13,0,5.675,2.545,5.675,5.675v36.992H85.338V69.675z
			 M469.333,428.181c0,10.938-8.881,19.819-19.819,19.819H62.485c-10.938,0-19.819-8.881-19.819-19.819V211.819
			c0-10.938,8.881-19.819,19.819-19.819h387.029c10.938,0,19.819,8.881,19.819,19.819V428.181z"/>
	</g>
</g>
<g>
</g>
<g>
</g>
<g>
</g>
<g>
</g>
<g>
</g>
<g>
</g>
<g>
</g>
<g>
</g>
<g>
</g>
<g>
</g>
<g>
</g>
<g>
</g>
<g>
</g>
<g>
</g>
<g>
</g>
</svg>
