<?xml version="1.0" encoding="iso-8859-1"?>
<!-- Generator: Adobe Illustrator 17.1.0, SVG Export Plug-In . SVG Version: 6.00 Build 0)  -->
<!DOCTYPE svg PUBLIC "-//W3C//DTD SVG 1.1//EN" "http://www.w3.org/Graphics/SVG/1.1/DTD/svg11.dtd">
<svg version="1.1" id="Capa_1" xmlns="http://www.w3.org/2000/svg" xmlns:xlink="http://www.w3.org/1999/xlink" x="0px" y="0px"
	 viewBox="0 0 288.781 288.781" style="enable-background:new 0 0 288.781 288.781;" xml:space="preserve" fill="white">
<g>
	<path style="fill:#000002;" d="M266.281,38.073H22.5c-12.407,0-22.5,10.093-22.5,22.5v167.636c0,12.407,10.093,22.5,22.5,22.5
		h243.781c12.407,0,22.5-10.093,22.5-22.5V60.573C288.781,48.166,278.688,38.073,266.281,38.073z M273.781,228.208
		c0,4.136-3.364,7.5-7.5,7.5H22.5c-4.136,0-7.5-3.364-7.5-7.5V60.573c0-4.136,3.364-7.5,7.5-7.5h243.781c4.136,0,7.5,3.364,7.5,7.5
		V228.208z"/>
	<path style="fill:#000002;" d="M247.744,203.336h-53.348v-2.167c0-4.142-3.358-7.5-7.5-7.5c-4.142,0-7.5,3.358-7.5,7.5v2.167
		H41.038c-4.142,0-7.5,3.358-7.5,7.5c0,4.142,3.358,7.5,7.5,7.5h138.358v1.833c0,4.142,3.358,7.5,7.5,7.5c4.142,0,7.5-3.358,7.5-7.5
		v-1.833h53.348c4.142,0,7.5-3.358,7.5-7.5C255.244,206.694,251.886,203.336,247.744,203.336z"/>
	<path style="fill:#000002;" d="M144.391,189.502c31.497,0,57.122-25.625,57.122-57.121c0-31.497-25.625-57.122-57.122-57.122
		c-31.497,0-57.122,25.625-57.122,57.122C87.269,163.878,112.894,189.502,144.391,189.502z M144.391,87.259
		c24.88,0,45.122,20.242,45.122,45.122c0,24.88-20.241,45.121-45.122,45.121c-24.88,0-45.122-20.241-45.122-45.121
		C99.269,107.501,119.51,87.259,144.391,87.259z"/>
	<path style="fill:#000002;" d="M131.766,165.531c1.781,0,3.609-0.58,5.284-1.678l36.217-23.715
		c2.821-1.848,4.438-4.676,4.438-7.759c0-3.083-1.618-5.911-4.439-7.758l-36.216-23.712c-1.676-1.098-3.503-1.678-5.285-1.678
		c-4.068,0-8.185,3.077-8.185,8.958v48.384C123.58,162.454,127.698,165.531,131.766,165.531z M135.58,114.29l27.63,18.09
		l-27.63,18.092V114.29z"/>
</g>
<g>
</g>
<g>
</g>
<g>
</g>
<g>
</g>
<g>
</g>
<g>
</g>
<g>
</g>
<g>
</g>
<g>
</g>
<g>
</g>
<g>
</g>
<g>
</g>
<g>
</g>
<g>
</g>
<g>
</g>
</svg>
