<?xml version="1.0" encoding="iso-8859-1"?>
<!-- Generator: Adobe Illustrator 19.0.0, SVG Export Plug-In . SVG Version: 6.00 Build 0)  -->
<svg version="1.1" id="Layer_1" xmlns="http://www.w3.org/2000/svg" xmlns:xlink="http://www.w3.org/1999/xlink" x="0px" y="0px"
	 viewBox="0 0 512 512" style="enable-background:new 0 0 512 512;" xml:space="preserve" fill="white">
<g>
	<g>
		<path d="M490.667,405.333V234.667C490.667,105.551,385.115,0,256,0S21.333,105.551,21.333,234.667v170.667
			C9.551,405.333,0,414.885,0,426.667v64C0,502.449,9.551,512,21.333,512h149.333h170.667h149.333
			c11.782,0,21.333-9.551,21.333-21.333v-64C512,414.885,502.449,405.333,490.667,405.333z M64,234.667
			c0-105.551,86.449-192,192-192s192,86.449,192,192v170.667h-42.667V252.629c0-90.8-67.752-167.296-149.333-167.296
			S106.667,161.83,106.667,252.629v152.704H64V234.667z M341.333,405.333c-11.782,0-21.333,9.551-21.333,21.333v42.667H192v-42.667
			c0-11.782-9.551-21.333-21.333-21.333h-21.333V320h213.333v85.333H341.333z M362.667,277.333H149.333v-24.704
			C149.333,184.318,199.214,128,256,128s106.667,56.318,106.667,124.629V277.333z M42.667,448h106.667v21.333H42.667V448z
			 M469.333,469.333H362.667V448h106.667V469.333z"/>
	</g>
</g>
<g>
</g>
<g>
</g>
<g>
</g>
<g>
</g>
<g>
</g>
<g>
</g>
<g>
</g>
<g>
</g>
<g>
</g>
<g>
</g>
<g>
</g>
<g>
</g>
<g>
</g>
<g>
</g>
<g>
</g>
</svg>
